# xmcd
#
# Track frame offsets:
#	150
#	25762
#	52800
#
# Disc length: 942 seconds
#
# Revision: 0
# Processed by: cddbd v1.5PL3 Copyright (c) Steve Scherf et al.
# Submitted via: audiograbber 1.83.01
#
DISCID=1703ac03
DTITLE=Gunter Gabriel - Hey Boss `90
DYEAR=1990
DGENRE=
TTITLE0=Hey Boss `90 (Vocal Dance Mix)
TTITLE1=Hey Boss `90 (Maxi Sound Mix)
TTITLE2=Hey Boss `90 (Single Version)
EXTD=
EXTT0=
EXTT1=
EXTT2=
PLAYORDER=
